<mxfile host="65bd71144e">
    <diagram id="VSp2XTB7YUmKAUP8-mYw" name="Seite-1">
        <mxGraphModel dx="986" dy="354" grid="1" gridSize="10" guides="1" tooltips="1" connect="1" arrows="1" fold="1" page="1" pageScale="1" pageWidth="827" pageHeight="1169" math="0" shadow="0">
            <root>
                <mxCell id="0"/>
                <mxCell id="1" parent="0"/>
                <mxCell id="4" value=":kunden" style="shape=umlLifeline;perimeter=lifelinePerimeter;whiteSpace=wrap;html=1;container=1;dropTarget=0;collapsible=0;recursiveResize=0;outlineConnect=0;portConstraint=eastwest;newEdgeStyle={&quot;curved&quot;:0,&quot;rounded&quot;:0};" parent="1" vertex="1">
                    <mxGeometry x="70" y="40" width="100" height="550" as="geometry"/>
                </mxCell>
                <mxCell id="11" value="" style="html=1;points=[[0,0,0,0,5],[0,1,0,0,-5],[1,0,0,0,5],[1,1,0,0,-5]];perimeter=orthogonalPerimeter;outlineConnect=0;targetShapes=umlLifeline;portConstraint=eastwest;newEdgeStyle={&quot;curved&quot;:0,&quot;rounded&quot;:0};" parent="4" vertex="1">
                    <mxGeometry x="45" y="80" width="10" height="430" as="geometry"/>
                </mxCell>
                <mxCell id="17" value="" style="html=1;points=[[0,0,0,0,5],[0,1,0,0,-5],[1,0,0,0,5],[1,1,0,0,-5]];perimeter=orthogonalPerimeter;outlineConnect=0;targetShapes=umlLifeline;portConstraint=eastwest;newEdgeStyle={&quot;curved&quot;:0,&quot;rounded&quot;:0};" vertex="1" parent="4">
                    <mxGeometry x="55" y="140" width="10" height="80" as="geometry"/>
                </mxCell>
                <mxCell id="5" value=":service" style="shape=umlLifeline;perimeter=lifelinePerimeter;whiteSpace=wrap;html=1;container=1;dropTarget=0;collapsible=0;recursiveResize=0;outlineConnect=0;portConstraint=eastwest;newEdgeStyle={&quot;curved&quot;:0,&quot;rounded&quot;:0};" parent="1" vertex="1">
                    <mxGeometry x="350" y="40" width="100" height="540" as="geometry"/>
                </mxCell>
                <mxCell id="12" value="" style="html=1;points=[[0,0,0,0,5],[0,1,0,0,-5],[1,0,0,0,5],[1,1,0,0,-5]];perimeter=orthogonalPerimeter;outlineConnect=0;targetShapes=umlLifeline;portConstraint=eastwest;newEdgeStyle={&quot;curved&quot;:0,&quot;rounded&quot;:0};" parent="5" vertex="1">
                    <mxGeometry x="45" y="80" width="10" height="360" as="geometry"/>
                </mxCell>
                <mxCell id="8" value=":pommes" style="shape=umlLifeline;perimeter=lifelinePerimeter;whiteSpace=wrap;html=1;container=1;dropTarget=0;collapsible=0;recursiveResize=0;outlineConnect=0;portConstraint=eastwest;newEdgeStyle={&quot;edgeStyle&quot;:&quot;elbowEdgeStyle&quot;,&quot;elbow&quot;:&quot;vertical&quot;,&quot;curved&quot;:0,&quot;rounded&quot;:0};" parent="1" vertex="1">
                    <mxGeometry x="560" y="270" width="100" height="270" as="geometry"/>
                </mxCell>
                <mxCell id="10" value="" style="shape=umlDestroy;whiteSpace=wrap;html=1;strokeWidth=3;targetShapes=umlLifeline;" parent="8" vertex="1">
                    <mxGeometry x="35" y="240" width="30" height="30" as="geometry"/>
                </mxCell>
                <mxCell id="29" style="edgeStyle=none;html=1;curved=0;rounded=0;exitX=1;exitY=1;exitDx=0;exitDy=-5;exitPerimeter=0;" edge="1" parent="8" source="24" target="8">
                    <mxGeometry relative="1" as="geometry"/>
                </mxCell>
                <mxCell id="24" value="" style="html=1;points=[[0,0,0,0,5],[0,1,0,0,-5],[1,0,0,0,5],[1,1,0,0,-5]];perimeter=orthogonalPerimeter;outlineConnect=0;targetShapes=umlLifeline;portConstraint=eastwest;newEdgeStyle={&quot;curved&quot;:0,&quot;rounded&quot;:0};" vertex="1" parent="8">
                    <mxGeometry x="45" y="90" width="10" height="70" as="geometry"/>
                </mxCell>
                <mxCell id="27" value="Zubereitung()" style="html=1;align=left;spacingLeft=2;endArrow=block;rounded=0;edgeStyle=orthogonalEdgeStyle;curved=0;rounded=0;entryX=1;entryY=1;entryDx=0;entryDy=-5;entryPerimeter=0;" edge="1" target="24" parent="8" source="8">
                    <mxGeometry relative="1" as="geometry">
                        <mxPoint x="50" y="100" as="sourcePoint"/>
                        <Array as="points">
                            <mxPoint x="120" y="70"/>
                        </Array>
                        <mxPoint x="180" y="130" as="targetPoint"/>
                    </mxGeometry>
                </mxCell>
                <mxCell id="13" value="bestellePommes()" style="html=1;verticalAlign=bottom;labelBackgroundColor=none;endArrow=open;endFill=0;exitX=0.5;exitY=0;exitDx=0;exitDy=0;exitPerimeter=0;" parent="1" source="11" target="12" edge="1">
                    <mxGeometry x="0.0036" width="160" relative="1" as="geometry">
                        <mxPoint x="190" y="130" as="sourcePoint"/>
                        <mxPoint x="360" y="140" as="targetPoint"/>
                        <mxPoint as="offset"/>
                    </mxGeometry>
                </mxCell>
                <mxCell id="18" value="pommesWasRauf()" style="html=1;verticalAlign=bottom;endArrow=block;curved=0;rounded=0;entryX=1;entryY=0;entryDx=0;entryDy=5;" edge="1" target="17" parent="1" source="12">
                    <mxGeometry relative="1" as="geometry">
                        <mxPoint x="390" y="185" as="sourcePoint"/>
                    </mxGeometry>
                </mxCell>
                <mxCell id="19" value="mitMayo()" style="html=1;verticalAlign=bottom;endArrow=open;dashed=1;endSize=8;curved=0;rounded=0;exitX=1;exitY=1;exitDx=0;exitDy=-5;" edge="1" source="17" parent="1" target="12">
                    <mxGeometry relative="1" as="geometry">
                        <mxPoint x="390" y="255" as="targetPoint"/>
                    </mxGeometry>
                </mxCell>
                <mxCell id="21" value="" style="html=1;verticalAlign=bottom;labelBackgroundColor=none;endArrow=open;endFill=0;dashed=1;" edge="1" parent="1" source="12" target="8">
                    <mxGeometry width="160" relative="1" as="geometry">
                        <mxPoint x="410" y="310" as="sourcePoint"/>
                        <mxPoint x="500" y="380" as="targetPoint"/>
                    </mxGeometry>
                </mxCell>
                <mxCell id="28" value="pommesFertig()" style="html=1;verticalAlign=bottom;endArrow=open;dashed=1;endSize=8;curved=0;rounded=0;exitX=0;exitY=1;exitDx=0;exitDy=-5;exitPerimeter=0;" edge="1" parent="1" source="24" target="12">
                    <mxGeometry relative="1" as="geometry">
                        <mxPoint x="430" y="425" as="targetPoint"/>
                        <mxPoint x="600" y="410" as="sourcePoint"/>
                    </mxGeometry>
                </mxCell>
                <mxCell id="31" value="loveAllServeAll()" style="html=1;verticalAlign=bottom;endArrow=open;dashed=1;endSize=8;curved=0;rounded=0;" edge="1" parent="1">
                    <mxGeometry x="0.0038" relative="1" as="geometry">
                        <mxPoint x="125" y="460" as="targetPoint"/>
                        <mxPoint x="390" y="460" as="sourcePoint"/>
                        <mxPoint as="offset"/>
                    </mxGeometry>
                </mxCell>
                <mxCell id="32" value="pommesEssen()" style="html=1;verticalAlign=bottom;labelBackgroundColor=none;endArrow=open;endFill=0;" edge="1" parent="1" source="11">
                    <mxGeometry x="0.0036" width="160" relative="1" as="geometry">
                        <mxPoint x="130" y="515" as="sourcePoint"/>
                        <mxPoint x="590" y="520" as="targetPoint"/>
                        <mxPoint as="offset"/>
                    </mxGeometry>
                </mxCell>
            </root>
        </mxGraphModel>
    </diagram>
</mxfile>